<?xml version="1.0" standalone="no"?>
<!DOCTYPE svg PUBLIC "-//W3C//DTD SVG 20010904//EN"
 "http://www.w3.org/TR/2001/REC-SVG-20010904/DTD/svg10.dtd">
<svg version="1.0" xmlns="http://www.w3.org/2000/svg"
 width="712.000000pt" height="676.000000pt" viewBox="0 0 712.000000 676.000000"
 preserveAspectRatio="xMidYMid meet">

<g transform="translate(0.000000,676.000000) scale(0.100000,-0.100000)"
fill="#000000" stroke="none">
<path d="M4370 6623 c-267 -20 -651 -107 -1040 -235 -329 -108 -1189 -419
-1457 -526 -688 -276 -1129 -604 -1366 -1017 -95 -165 -171 -380 -213 -605
-35 -183 -44 -502 -20 -695 64 -504 233 -963 549 -1490 239 -399 590 -834 889
-1102 555 -498 1117 -780 1708 -857 539 -71 960 25 1400 319 413 276 796 688
1389 1493 407 554 670 1111 745 1577 52 322 46 576 -19 900 -123 606 -396
1145 -783 1546 -214 223 -428 379 -687 504 -221 107 -407 160 -644 184 -95 10
-344 12 -451 4z"/>
</g>
</svg>
